<svg width="10" height="10" viewBox="0 0 10 10" fill="none" xmlns="http://www.w3.org/2000/svg">
<path fill-rule="evenodd" clip-rule="evenodd" d="M6.83329 5.83333C6.28101 5.83333 5.83329 6.28104 5.83329 6.83333V8.33333C5.83329 8.79357 5.4602 9.16666 4.99996 9.16666C4.53972 9.16666 4.16663 8.79357 4.16663 8.33333V6.83333C4.16663 6.28105 3.71891 5.83333 3.16663 5.83333H1.66663C1.20639 5.83333 0.833292 5.46023 0.833292 5C0.833292 4.53976 1.20639 4.16666 1.66662 4.16666H3.16663C3.71891 4.16666 4.16663 3.71895 4.16663 3.16666V1.66666C4.16663 1.20643 4.53972 0.833331 4.99996 0.833331C5.4602 0.833331 5.83329 1.20643 5.83329 1.66666V3.16666C5.83329 3.71895 6.28101 4.16666 6.83329 4.16666H8.33329C8.79353 4.16666 9.16663 4.53976 9.16663 5C9.16663 5.46023 8.79353 5.83333 8.33329 5.83333H6.83329Z" fill="white"/>
</svg>
