<svg width="21" height="21" viewBox="0 0 21 21" fill="none" xmlns="http://www.w3.org/2000/svg">
<!-- <path fill-rule="evenodd" clip-rule="evenodd" d="M10.4998 0.916827C11.8255 0.916827 13.0713 1.16839 14.2373 1.67152C15.4033 2.17464 16.4175 2.85745 17.28 3.71995C18.1425 4.58245 18.8253 5.59669 19.3284 6.76266C19.8316 7.92863 20.0831 9.17447 20.0831 10.5002C20.0831 11.8259 19.8316 13.0717 19.3284 14.2377C18.8253 15.4036 18.1425 16.4179 17.28 17.2804C16.4175 18.1429 15.4033 18.8257 14.2373 19.3288C13.0713 19.8319 11.8255 20.0835 10.4998 20.0835C9.1741 20.0835 7.92827 19.8319 6.7623 19.3288C5.59632 18.8257 4.58209 18.1429 3.71959 17.2804C2.85709 16.4179 2.17427 15.4036 1.67115 14.2377C1.16803 13.0717 0.916463 11.8259 0.916463 10.5002C0.916463 9.17447 1.16803 7.92863 1.67115 6.76266C2.17428 5.59669 2.85709 4.58245 3.71959 3.71995C4.58209 2.85745 5.59632 2.17464 6.7623 1.67152C7.92827 1.16839 9.1741 0.916827 10.4998 0.916827ZM5.06126 5.06162C6.54667 3.5762 8.35952 2.8335 10.4998 2.8335C12.6401 2.8335 14.4529 3.5762 15.9383 5.06162C17.4238 6.54704 18.1665 8.35988 18.1665 10.5002C18.1665 12.6404 17.4238 14.4533 15.9383 15.9387C14.4529 17.4241 12.6401 18.1668 10.4998 18.1668C8.35952 18.1668 6.54667 17.4241 5.06125 15.9387C3.57584 14.4533 2.83313 12.6404 2.83313 10.5002C2.83313 8.35988 3.57584 6.54704 5.06126 5.06162Z" fill="black"/> -->
<path d="M11.1706 7.33766C10.8001 6.96717 10.1995 6.96717 9.82896 7.33766C9.45847 7.70815 9.45847 8.30884 9.82896 8.67933L10.6915 9.54183L7.6248 9.54183C7.09552 9.54183 6.66646 9.97089 6.66646 10.5002C6.66646 11.0294 7.09552 11.4585 7.6248 11.4585L10.6915 11.4585L9.82896 12.321C9.45847 12.6915 9.45847 13.2922 9.82896 13.6627C10.1995 14.0332 10.8001 14.0332 11.1706 13.6627L13.626 11.2073C14.0165 10.8167 14.0165 10.1836 13.626 9.79305L11.1706 7.33766Z" />
</svg>
