<svg width="20" height="20" viewBox="0 0 20 20" fill="none" xmlns="http://www.w3.org/2000/svg">
<mask id="mask0_1_245" style="mask-type:alpha" maskUnits="userSpaceOnUse" x="0" y="0" width="20" height="20">
<rect x="20" y="20" width="20" height="20" transform="rotate(-180 20 20)" fill="#D9D9D9"/>
</mask>
<g mask="url(#mask0_1_245)">
<path fill-rule="evenodd" clip-rule="evenodd" d="M9.41652 8.41658C9.09435 8.09442 9.09435 7.57208 9.41652 7.24992C9.73868 6.92775 10.261 6.92775 10.5832 7.24992L12.6261 9.29281C13.0166 9.68333 13.0166 10.3165 12.6261 10.707L10.5832 12.7499C10.261 13.0721 9.73868 13.0721 9.41652 12.7499C9.09435 12.4278 9.09435 11.9054 9.41652 11.5833L10.1665 10.8333L7.49985 10.8333C7.03961 10.8333 6.66652 10.4602 6.66652 9.99992C6.66652 9.53968 7.03961 9.16658 7.49985 9.16658L10.1665 9.16658L9.41652 8.41658Z" fill="white"/>
<path fill-rule="evenodd" clip-rule="evenodd" d="M9.99985 1.66658C11.1526 1.66658 12.236 1.88533 13.2499 2.32283C14.2637 2.76033 15.1457 3.35408 15.8957 4.10408C16.6457 4.85408 17.2394 5.73603 17.6769 6.74992C18.1144 7.76381 18.3332 8.84714 18.3332 9.99992C18.3332 11.1527 18.1144 12.236 17.6769 13.2499C17.2394 14.2638 16.6457 15.1458 15.8957 15.8958C15.1457 16.6458 14.2637 17.2395 13.2498 17.677C12.236 18.1145 11.1526 18.3333 9.99985 18.3333C8.84707 18.3333 7.76374 18.1145 6.74985 17.677C5.73596 17.2395 4.85402 16.6458 4.10402 15.8958C3.35402 15.1458 2.76027 14.2638 2.32277 13.2499C1.88527 12.236 1.66652 11.1527 1.66652 9.99992C1.66652 8.84714 1.88527 7.76381 2.32277 6.74992C2.76027 5.73603 3.35402 4.85408 4.10402 4.10408C4.85402 3.35408 5.73596 2.76033 6.74985 2.32283C7.76374 1.88533 8.84707 1.66658 9.99985 1.66658ZM5.27068 5.27075C6.56235 3.97908 8.13874 3.33325 9.99985 3.33325C11.861 3.33325 13.4374 3.97908 14.729 5.27075C16.0207 6.56242 16.6665 8.13881 16.6665 9.99992C16.6665 11.861 16.0207 13.4374 14.729 14.7291C13.4373 16.0208 11.861 16.6666 9.99985 16.6666C8.13874 16.6666 6.56235 16.0208 5.27068 14.7291C3.97902 13.4374 3.33318 11.861 3.33318 9.99992C3.33318 8.13881 3.97902 6.56242 5.27068 5.27075Z" fill="black"/>
<path fill-rule="evenodd" clip-rule="evenodd" d="M9.99985 3.33325C8.13874 3.33325 6.56235 3.97908 5.27068 5.27075C3.97902 6.56242 3.33318 8.13881 3.33318 9.99992C3.33318 11.861 3.97902 13.4374 5.27068 14.7291C6.56235 16.0208 8.13874 16.6666 9.99985 16.6666C11.861 16.6666 13.4373 16.0208 14.729 14.7291C16.0207 13.4374 16.6665 11.861 16.6665 9.99992C16.6665 8.13881 16.0207 6.56242 14.729 5.27075C13.4374 3.97908 11.861 3.33325 9.99985 3.33325ZM9.41652 8.41658C9.09435 8.09442 9.09435 7.57208 9.41652 7.24992C9.73868 6.92775 10.261 6.92775 10.5832 7.24992L12.6261 9.29281C13.0166 9.68333 13.0166 10.3165 12.6261 10.707L10.5832 12.7499C10.261 13.0721 9.73868 13.0721 9.41652 12.7499C9.09435 12.4278 9.09435 11.9054 9.41652 11.5833L10.1665 10.8333L7.49985 10.8333C7.03961 10.8333 6.66652 10.4602 6.66652 9.99992C6.66652 9.53968 7.03961 9.16658 7.49985 9.16658L10.1665 9.16658L9.41652 8.41658Z" fill="black"/>
</g>
</svg>
