<svg width="21" height="21" viewBox="0 0 21 21" fill="none" xmlns="http://www.w3.org/2000/svg">
<path fill-rule="evenodd" clip-rule="evenodd" d="M11.171 12.3207C11.5415 12.6912 11.5415 13.2918 11.171 13.6623C10.8005 14.0328 10.1999 14.0328 9.82937 13.6623L7.37398 11.2069C6.98345 10.8164 6.98345 10.1833 7.37398 9.79273L9.82937 7.33734C10.1999 6.96685 10.8005 6.96685 11.171 7.33734C11.5415 7.70783 11.5415 8.30851 11.171 8.679L10.3085 9.5415H13.3752C13.9045 9.5415 14.3335 9.97056 14.3335 10.4998C14.3335 11.0291 13.9045 11.4582 13.3752 11.4582H10.3085L11.171 12.3207Z" />
<!-- <path fill-rule="evenodd" clip-rule="evenodd" d="M10.5002 20.0832C9.17451 20.0832 7.92868 19.8316 6.7627 19.3285C5.59673 18.8254 4.5825 18.1425 3.72 17.28C2.85749 16.4175 2.17468 15.4033 1.67156 14.2373C1.16843 13.0714 0.91687 11.8255 0.91687 10.4998C0.91687 9.17414 1.16843 7.92831 1.67156 6.76234C2.17468 5.59636 2.85749 4.58213 3.72 3.71963C4.5825 2.85713 5.59673 2.17432 6.7627 1.67119C7.92868 1.16807 9.17451 0.916504 10.5002 0.916504C11.8259 0.916504 13.0717 1.16807 14.2377 1.67119C15.4037 2.17432 16.4179 2.85713 17.2804 3.71963C18.1429 4.58213 18.8257 5.59636 19.3288 6.76234C19.832 7.92831 20.0835 9.17414 20.0835 10.4998C20.0835 11.8255 19.832 13.0714 19.3288 14.2373C18.8257 15.4033 18.1429 16.4175 17.2804 17.28C16.4179 18.1425 15.4037 18.8254 14.2377 19.3285C13.0717 19.8316 11.8259 20.0832 10.5002 20.0832ZM15.9387 15.9384C14.4533 17.4238 12.6405 18.1665 10.5002 18.1665C8.35993 18.1665 6.54708 17.4238 5.06166 15.9384C3.57625 14.453 2.83354 12.6401 2.83354 10.4998C2.83354 8.35956 3.57625 6.54671 5.06166 5.0613C6.54708 3.57588 8.35993 2.83317 10.5002 2.83317C12.6405 2.83317 14.4533 3.57588 15.9387 5.0613C17.4242 6.54671 18.1669 8.35956 18.1669 10.4998C18.1669 12.6401 17.4242 14.453 15.9387 15.9384Z" fill="black"/> -->
<!-- <path fill-rule="evenodd" clip-rule="evenodd" d="M10.5002 18.1665C12.6405 18.1665 14.4533 17.4238 15.9387 15.9384C17.4242 14.453 18.1669 12.6401 18.1669 10.4998C18.1669 8.35956 17.4242 6.54671 15.9387 5.0613C14.4533 3.57588 12.6405 2.83317 10.5002 2.83317C8.35993 2.83317 6.54708 3.57588 5.06166 5.0613C3.57625 6.54671 2.83354 8.35956 2.83354 10.4998C2.83354 12.6401 3.57625 14.453 5.06166 15.9384C6.54708 17.4238 8.35993 18.1665 10.5002 18.1665ZM11.171 12.3207C11.5415 12.6912 11.5415 13.2918 11.171 13.6623C10.8005 14.0328 10.1999 14.0328 9.82937 13.6623L7.37398 11.2069C6.98345 10.8164 6.98345 10.1833 7.37398 9.79273L9.82937 7.33734C10.1999 6.96685 10.8005 6.96685 11.171 7.33734C11.5415 7.70783 11.5415 8.30851 11.171 8.679L10.3085 9.5415H13.3752C13.9045 9.5415 14.3335 9.97056 14.3335 10.4998C14.3335 11.0291 13.9045 11.4582 13.3752 11.4582H10.3085L11.171 12.3207Z" fill="black"/> -->
</svg>
