<svg width="17" height="17" viewBox="0 0 17 17" fill="none" xmlns="http://www.w3.org/2000/svg">
<path fill-rule="evenodd" clip-rule="evenodd" d="M7.10994 7.93498C6.65433 7.93498 6.28499 7.56564 6.28499 7.11002C6.28499 6.65441 6.65433 6.28507 7.10994 6.28507L9.99903 6.28507C10.5513 6.28507 10.999 6.73278 10.999 7.28507L10.999 10.1742C10.999 10.6298 10.6297 10.9991 10.1741 10.9991C9.71846 10.9991 9.34912 10.6298 9.34912 10.1742L9.34912 9.11349L7.4635 10.9991C7.13806 11.3245 6.61042 11.3245 6.28499 10.9991C5.95955 10.6737 5.95955 10.146 6.28499 9.8206L8.17061 7.93498L7.10994 7.93498Z" fill="black"/>
<path fill-rule="evenodd" clip-rule="evenodd" d="M2.74945 2.74953C3.56459 1.93439 4.4853 1.32304 5.51159 0.915473C6.53788 0.507905 7.58135 0.304121 8.64201 0.304121C9.70267 0.304121 10.7461 0.507905 11.7724 0.915474C12.7987 1.32304 13.7194 1.9344 14.5346 2.74953C15.3497 3.56467 15.9611 4.48538 16.3686 5.51167C16.7762 6.53796 16.98 7.58143 16.98 8.64209C16.98 9.70275 16.7762 10.7462 16.3686 11.7725C15.9611 12.7988 15.3497 13.7195 14.5346 14.5346C13.7194 15.3498 12.7987 15.9611 11.7724 16.3687C10.7461 16.7763 9.70267 16.9801 8.64201 16.9801C7.58135 16.9801 6.53788 16.7763 5.51159 16.3687C4.4853 15.9611 3.56459 15.3498 2.74945 14.5346C1.93432 13.7195 1.32296 12.7988 0.915395 11.7725C0.507826 10.7462 0.304042 9.70275 0.304042 8.64209C0.304042 7.58143 0.507827 6.53795 0.915396 5.51167C1.32296 4.48538 1.93432 3.56467 2.74945 2.74953ZM1.95396 8.64209C1.95396 6.8154 2.61196 5.24405 3.92797 3.92804C5.24397 2.61204 6.81532 1.95404 8.64201 1.95404C10.4687 1.95404 12.0401 2.61204 13.3561 3.92804C14.6721 5.24405 15.3301 6.8154 15.3301 8.64209C15.3301 10.4688 14.6721 12.0401 13.3561 13.3561C12.0401 14.6721 10.4687 15.3301 8.64201 15.3301C6.81532 15.3301 5.24397 14.6721 3.92796 13.3561C2.61196 12.0401 1.95396 10.4688 1.95396 8.64209Z" fill="white"/>
<path fill-rule="evenodd" clip-rule="evenodd" d="M3.92797 3.92804C2.61196 5.24405 1.95396 6.8154 1.95396 8.64209C1.95396 10.4688 2.61196 12.0401 3.92796 13.3561C5.24397 14.6721 6.81532 15.3301 8.64201 15.3301C10.4687 15.3301 12.0401 14.6721 13.3561 13.3561C14.6721 12.0401 15.3301 10.4688 15.3301 8.64209C15.3301 6.8154 14.6721 5.24405 13.3561 3.92804C12.0401 2.61204 10.4687 1.95404 8.64201 1.95404C6.81532 1.95404 5.24397 2.61204 3.92797 3.92804ZM7.10994 7.93498C6.65433 7.93498 6.28499 7.56564 6.28499 7.11002C6.28499 6.65441 6.65433 6.28507 7.10994 6.28507L9.99903 6.28507C10.5513 6.28507 10.999 6.73278 10.999 7.28507L10.999 10.1742C10.999 10.6298 10.6297 10.9991 10.1741 10.9991C9.71846 10.9991 9.34912 10.6298 9.34912 10.1742L9.34912 9.11349L7.4635 10.9991C7.13806 11.3245 6.61042 11.3245 6.28499 10.9991C5.95955 10.6737 5.95955 10.146 6.28499 9.8206L8.17061 7.93498L7.10994 7.93498Z" fill="white"/>
</svg>
