<svg width="18" height="18" viewBox="0 0 18 18" fill="none" xmlns="http://www.w3.org/2000/svg">
<path fill-rule="evenodd" clip-rule="evenodd" d="M8.41652 7.41658C8.09435 7.09442 8.09435 6.57208 8.41652 6.24992C8.73868 5.92775 9.26102 5.92775 9.58318 6.24992L11.6261 8.29281C12.0166 8.68333 12.0166 9.3165 11.6261 9.70702L9.58318 11.7499C9.26102 12.0721 8.73868 12.0721 8.41652 11.7499C8.09435 11.4278 8.09435 10.9054 8.41652 10.5833L9.16652 9.83325L6.49985 9.83325C6.03961 9.83325 5.66652 9.46015 5.66652 8.99992C5.66652 8.53968 6.03961 8.16658 6.49985 8.16658L9.16652 8.16658L8.41652 7.41658Z" fill="white"/>
<path fill-rule="evenodd" clip-rule="evenodd" d="M8.99985 0.666583C10.1526 0.666583 11.236 0.885333 12.2499 1.32283C13.2637 1.76033 14.1457 2.35408 14.8957 3.10408C15.6457 3.85408 16.2394 4.73603 16.6769 5.74992C17.1144 6.76381 17.3332 7.84714 17.3332 8.99992C17.3332 10.1527 17.1144 11.236 16.6769 12.2499C16.2394 13.2638 15.6457 14.1458 14.8957 14.8958C14.1457 15.6458 13.2637 16.2395 12.2498 16.677C11.236 17.1145 10.1526 17.3333 8.99985 17.3333C7.84707 17.3333 6.76374 17.1145 5.74985 16.677C4.73596 16.2395 3.85402 15.6458 3.10402 14.8958C2.35402 14.1458 1.76027 13.2638 1.32277 12.2499C0.885266 11.236 0.666516 10.1527 0.666516 8.99992C0.666516 7.84714 0.885266 6.76381 1.32277 5.74992C1.76027 4.73603 2.35402 3.85408 3.10402 3.10408C3.85402 2.35408 4.73596 1.76033 5.74985 1.32283C6.76374 0.885333 7.84707 0.666583 8.99985 0.666583ZM4.27068 4.27075C5.56235 2.97908 7.13874 2.33325 8.99985 2.33325C10.861 2.33325 12.4374 2.97908 13.729 4.27075C15.0207 5.56242 15.6665 7.13881 15.6665 8.99992C15.6665 10.861 15.0207 12.4374 13.729 13.7291C12.4373 15.0208 10.861 15.6666 8.99985 15.6666C7.13874 15.6666 5.56235 15.0208 4.27068 13.7291C2.97902 12.4374 2.33318 10.861 2.33318 8.99992C2.33318 7.13881 2.97902 5.56242 4.27068 4.27075Z" fill="black"/>
<path fill-rule="evenodd" clip-rule="evenodd" d="M8.99985 2.33325C7.13874 2.33325 5.56235 2.97908 4.27068 4.27075C2.97902 5.56242 2.33318 7.13881 2.33318 8.99992C2.33318 10.861 2.97902 12.4374 4.27068 13.7291C5.56235 15.0208 7.13874 15.6666 8.99985 15.6666C10.861 15.6666 12.4373 15.0208 13.729 13.7291C15.0207 12.4374 15.6665 10.861 15.6665 8.99992C15.6665 7.13881 15.0207 5.56242 13.729 4.27075C12.4374 2.97908 10.861 2.33325 8.99985 2.33325ZM8.41652 7.41658C8.09435 7.09442 8.09435 6.57208 8.41652 6.24992C8.73868 5.92775 9.26102 5.92775 9.58318 6.24992L11.6261 8.29281C12.0166 8.68333 12.0166 9.3165 11.6261 9.70702L9.58318 11.7499C9.26102 12.0721 8.73868 12.0721 8.41652 11.7499C8.09435 11.4278 8.09435 10.9054 8.41652 10.5833L9.16652 9.83325L6.49985 9.83325C6.03961 9.83325 5.66652 9.46015 5.66652 8.99992C5.66652 8.53968 6.03961 8.16658 6.49985 8.16658L9.16652 8.16658L8.41652 7.41658Z" fill="black"/>
</svg>
