<svg width="24" height="25" viewBox="0 0 24 25" fill="none" xmlns="http://www.w3.org/2000/svg">
<g clip-path="url(#clip0_1_622)">
<path d="M4.99997 4.5H8.99997L11 9.5L8.49997 11C9.57093 13.1715 11.3284 14.929 13.5 16L15 13.5L20 15.5V19.5C20 20.0304 19.7893 20.5391 19.4142 20.9142C19.0391 21.2893 18.5304 21.5 18 21.5C14.0992 21.263 10.4201 19.6065 7.6568 16.8432C4.89347 14.0798 3.23702 10.4007 2.99997 6.5C2.99997 5.96957 3.21068 5.46086 3.58576 5.08579C3.96083 4.71071 4.46954 4.5 4.99997 4.5Z" stroke="white" stroke-width="2" stroke-linecap="round" stroke-linejoin="round"/>
</g>
<defs>
<clipPath id="clip0_1_622">
<rect width="24" height="24" fill="white" transform="translate(-3.05176e-05 0.5)"/>
</clipPath>
</defs>
</svg>
