<svg width="74" height="29" viewBox="0 0 74 29" fill="none" xmlns="http://www.w3.org/2000/svg">
<path d="M31.5601 7H33.9201V18.88H39.4801V21H31.5601V7ZM40.309 16.4C40.309 15.4533 40.5223 14.62 40.949 13.9C41.389 13.18 41.9823 12.62 42.729 12.22C43.4756 11.8067 44.3223 11.6 45.269 11.6C46.2156 11.6 47.0556 11.8067 47.789 12.22C48.5356 12.62 49.129 13.18 49.569 13.9C50.009 14.62 50.229 15.4533 50.229 16.4C50.229 17.3333 50.009 18.1667 49.569 18.9C49.129 19.62 48.5356 20.1867 47.789 20.6C47.0556 21 46.2156 21.2 45.269 21.2C44.3223 21.2 43.4756 21 42.729 20.6C41.9823 20.1867 41.389 19.62 40.949 18.9C40.5223 18.1667 40.309 17.3333 40.309 16.4ZM42.529 16.4C42.529 16.9733 42.649 17.48 42.889 17.92C43.129 18.3467 43.4556 18.6867 43.869 18.94C44.2823 19.18 44.749 19.3 45.269 19.3C45.7756 19.3 46.2356 19.18 46.649 18.94C47.0756 18.6867 47.409 18.3467 47.649 17.92C47.889 17.48 48.009 16.9733 48.009 16.4C48.009 15.8267 47.889 15.32 47.649 14.88C47.409 14.44 47.0756 14.1 46.649 13.86C46.2356 13.62 45.7756 13.5 45.269 13.5C44.749 13.5 44.2823 13.62 43.869 13.86C43.4556 14.1 43.129 14.44 42.889 14.88C42.649 15.32 42.529 15.8267 42.529 16.4ZM51.7585 21.62H53.8985C53.9118 22.0333 54.0252 22.4067 54.2385 22.74C54.4652 23.0733 54.7718 23.3333 55.1585 23.52C55.5452 23.7067 55.9918 23.8 56.4985 23.8C56.9518 23.8 57.3852 23.6933 57.7985 23.48C58.2118 23.2667 58.5452 22.94 58.7985 22.5C59.0652 22.06 59.1985 21.4933 59.1985 20.8V11.8H61.3185V20.8C61.3185 21.9067 61.0918 22.82 60.6385 23.54C60.1985 24.26 59.6185 24.7933 58.8985 25.14C58.1785 25.5 57.3985 25.68 56.5585 25.68C55.5585 25.68 54.7052 25.5067 53.9985 25.16C53.2918 24.8267 52.7452 24.3533 52.3585 23.74C51.9852 23.1267 51.7852 22.42 51.7585 21.62ZM51.5785 16.36C51.5785 15.3333 51.7852 14.4733 52.1985 13.78C52.6118 13.0733 53.1585 12.5333 53.8385 12.16C54.5318 11.7867 55.2718 11.6 56.0585 11.6C56.8318 11.6 57.5052 11.7933 58.0785 12.18C58.6652 12.5533 59.1252 13.0933 59.4585 13.8C59.8052 14.5067 59.9785 15.36 59.9785 16.36C59.9785 17.3467 59.8052 18.1933 59.4585 18.9C59.1252 19.6067 58.6652 20.1533 58.0785 20.54C57.5052 20.9133 56.8318 21.1 56.0585 21.1C55.2718 21.1 54.5318 20.9133 53.8385 20.54C53.1585 20.1667 52.6118 19.6267 52.1985 18.92C51.7852 18.2133 51.5785 17.36 51.5785 16.36ZM53.8185 16.36C53.8185 16.9733 53.9452 17.4933 54.1985 17.92C54.4518 18.3467 54.7852 18.6733 55.1985 18.9C55.6252 19.1133 56.0852 19.22 56.5785 19.22C56.9918 19.22 57.3985 19.1133 57.7985 18.9C58.2118 18.6867 58.5452 18.3667 58.7985 17.94C59.0652 17.5 59.1985 16.9733 59.1985 16.36C59.1985 15.88 59.1185 15.4667 58.9585 15.12C58.8118 14.76 58.6118 14.46 58.3585 14.22C58.1052 13.9667 57.8185 13.78 57.4985 13.66C57.1918 13.54 56.8852 13.48 56.5785 13.48C56.0852 13.48 55.6252 13.5933 55.1985 13.82C54.7852 14.0333 54.4518 14.3533 54.1985 14.78C53.9452 15.2067 53.8185 15.7333 53.8185 16.36ZM63.2972 16.4C63.2972 15.4533 63.5106 14.62 63.9372 13.9C64.3772 13.18 64.9706 12.62 65.7172 12.22C66.4639 11.8067 67.3106 11.6 68.2572 11.6C69.2039 11.6 70.0439 11.8067 70.7772 12.22C71.5239 12.62 72.1172 13.18 72.5572 13.9C72.9972 14.62 73.2172 15.4533 73.2172 16.4C73.2172 17.3333 72.9972 18.1667 72.5572 18.9C72.1172 19.62 71.5239 20.1867 70.7772 20.6C70.0439 21 69.2039 21.2 68.2572 21.2C67.3106 21.2 66.4639 21 65.7172 20.6C64.9706 20.1867 64.3772 19.62 63.9372 18.9C63.5106 18.1667 63.2972 17.3333 63.2972 16.4ZM65.5172 16.4C65.5172 16.9733 65.6372 17.48 65.8772 17.92C66.1172 18.3467 66.4439 18.6867 66.8572 18.94C67.2706 19.18 67.7372 19.3 68.2572 19.3C68.7639 19.3 69.2239 19.18 69.6372 18.94C70.0639 18.6867 70.3972 18.3467 70.6372 17.92C70.8772 17.48 70.9972 16.9733 70.9972 16.4C70.9972 15.8267 70.8772 15.32 70.6372 14.88C70.3972 14.44 70.0639 14.1 69.6372 13.86C69.2239 13.62 68.7639 13.5 68.2572 13.5C67.7372 13.5 67.2706 13.62 66.8572 13.86C66.4439 14.1 66.1172 14.44 65.8772 14.88C65.6372 15.32 65.5172 15.8267 65.5172 16.4Z" fill="white"/>
<rect x="6.10352e-05" width="16" height="16" rx="4" fill="#C07FF2"/>
<rect x="8.00006" y="8" width="16" height="16" rx="8" fill="#09AFF4"/>
</svg>
