<svg width="24" height="25" viewBox="0 0 24 25" fill="none" xmlns="http://www.w3.org/2000/svg">
<g clip-path="url(#clip0_1_619)">
<path d="M18 6.5V6.51" stroke="white" stroke-width="2" stroke-linecap="round" stroke-linejoin="round"/>
<path d="M18 13.5L14.5 8.49997C14.163 7.891 13.9908 7.20466 14.0003 6.50876C14.0099 5.81287 14.2008 5.13149 14.5543 4.53197C14.9077 3.93245 15.4115 3.43552 16.0158 3.09029C16.6201 2.74506 17.304 2.56348 18 2.56348C18.6959 2.56348 19.3799 2.74506 19.9842 3.09029C20.5885 3.43552 21.0922 3.93245 21.4457 4.53197C21.7992 5.13149 21.9901 5.81287 21.9996 6.50876C22.0091 7.20466 21.8369 7.891 21.5 8.49997L18 13.5Z" stroke="white" stroke-width="2" stroke-linecap="round" stroke-linejoin="round"/>
<path d="M10.5 5.25L8.99997 4.5L2.99997 7.5V20.5L8.99997 17.5L15 20.5L21 17.5V15.5" stroke="white" stroke-width="2" stroke-linecap="round" stroke-linejoin="round"/>
<path d="M8.99997 4.5V17.5" stroke="white" stroke-width="2" stroke-linecap="round" stroke-linejoin="round"/>
<path d="M15 15.5V20.5" stroke="white" stroke-width="2" stroke-linecap="round" stroke-linejoin="round"/>
</g>
<defs>
<clipPath id="clip0_1_619">
<rect width="24" height="24" fill="white" transform="translate(-3.05176e-05 0.5)"/>
</clipPath>
</defs>
</svg>
