<svg width="14" height="14" viewBox="0 0 14 14" fill="none" xmlns="http://www.w3.org/2000/svg">
<path fill-rule="evenodd" clip-rule="evenodd" d="M7 12.2C8.45167 12.2 9.68125 11.6962 10.6887 10.6887C11.6962 9.68125 12.2 8.45167 12.2 7C12.2 5.54833 11.6962 4.31875 10.6887 3.31125C9.68125 2.30375 8.45167 1.8 7 1.8C5.54833 1.8 4.31875 2.30375 3.31125 3.31125C2.30375 4.31875 1.8 5.54833 1.8 7C1.8 8.45167 2.30375 9.68125 3.31125 10.6887C4.31875 11.6962 5.54833 12.2 7 12.2ZM8.6165 6.15882C9.22882 6.55246 9.22882 7.44754 8.6165 7.84118L6.91576 8.93451C6.25025 9.36234 5.375 8.8845 5.375 8.09334V5.90667C5.375 5.1155 6.25025 4.63766 6.91576 5.06549L8.6165 6.15882Z" fill="#1C1B1F"/>
<path fill-rule="evenodd" clip-rule="evenodd" d="M4.465 12.9881C5.25583 13.3294 6.10083 13.5 7 13.5C7.89917 13.5 8.74417 13.3294 9.535 12.9881C10.3258 12.6469 11.0138 12.1838 11.5988 11.5988C12.1838 11.0138 12.6469 10.3258 12.9881 9.535C13.3294 8.74417 13.5 7.89917 13.5 7C13.5 6.10083 13.3294 5.25583 12.9881 4.465C12.6469 3.67417 12.1838 2.98625 11.5988 2.40125C11.0138 1.81625 10.3258 1.35312 9.535 1.01187C8.74417 0.670625 7.89917 0.5 7 0.5C6.10083 0.5 5.25583 0.670625 4.465 1.01187C3.67417 1.35312 2.98625 1.81625 2.40125 2.40125C1.81625 2.98625 1.35312 3.67417 1.01187 4.465C0.670625 5.25583 0.5 6.10083 0.5 7C0.5 7.89917 0.670625 8.74417 1.01187 9.535C1.35312 10.3258 1.81625 11.0138 2.40125 11.5988C2.98625 12.1838 3.67417 12.6469 4.465 12.9881ZM10.6887 10.6887C9.68125 11.6962 8.45167 12.2 7 12.2C5.54833 12.2 4.31875 11.6962 3.31125 10.6887C2.30375 9.68125 1.8 8.45167 1.8 7C1.8 5.54833 2.30375 4.31875 3.31125 3.31125C4.31875 2.30375 5.54833 1.8 7 1.8C8.45167 1.8 9.68125 2.30375 10.6887 3.31125C11.6962 4.31875 12.2 5.54833 12.2 7C12.2 8.45167 11.6962 9.68125 10.6887 10.6887Z" fill="#1C1B1F"/>
<path d="M5.375 8.09334C5.375 8.8845 6.25025 9.36234 6.91576 8.93451L8.6165 7.84118C9.22882 7.44754 9.22882 6.55246 8.6165 6.15882L6.91576 5.06549C6.25025 4.63766 5.375 5.1155 5.375 5.90667V8.09334Z" fill="white"/>
</svg>
