<svg width="22" height="22" viewBox="0 0 22 22" fill="none" xmlns="http://www.w3.org/2000/svg">
<g filter="url(#filter0_d_3037_1255)">
<path fill-rule="evenodd" clip-rule="evenodd" d="M11 12.2C12.4517 12.2 13.6812 11.6962 14.6887 10.6887C15.6962 9.68125 16.2 8.45167 16.2 7C16.2 5.54833 15.6962 4.31875 14.6887 3.31125C13.6812 2.30375 12.4517 1.8 11 1.8C9.54833 1.8 8.31875 2.30375 7.31125 3.31125C6.30375 4.31875 5.8 5.54833 5.8 7C5.8 8.45167 6.30375 9.68125 7.31125 10.6887C8.31875 11.6962 9.54833 12.2 11 12.2ZM12.6165 6.15882C13.2288 6.55246 13.2288 7.44754 12.6165 7.84118L10.9158 8.93451C10.2502 9.36234 9.375 8.8845 9.375 8.09334V5.90667C9.375 5.1155 10.2502 4.63766 10.9158 5.06549L12.6165 6.15882Z" fill="#1C1B1F"/>
<path fill-rule="evenodd" clip-rule="evenodd" d="M8.465 12.9881C9.25583 13.3294 10.1008 13.5 11 13.5C11.8992 13.5 12.7442 13.3294 13.535 12.9881C14.3258 12.6469 15.0138 12.1838 15.5988 11.5988C16.1838 11.0138 16.6469 10.3258 16.9881 9.535C17.3294 8.74417 17.5 7.89917 17.5 7C17.5 6.10083 17.3294 5.25583 16.9881 4.465C16.6469 3.67417 16.1838 2.98625 15.5988 2.40125C15.0138 1.81625 14.3258 1.35313 13.535 1.01187C12.7442 0.670625 11.8992 0.5 11 0.5C10.1008 0.5 9.25583 0.670625 8.465 1.01187C7.67417 1.35313 6.98625 1.81625 6.40125 2.40125C5.81625 2.98625 5.35313 3.67417 5.01187 4.465C4.67062 5.25583 4.5 6.10083 4.5 7C4.5 7.89917 4.67062 8.74417 5.01187 9.535C5.35313 10.3258 5.81625 11.0138 6.40125 11.5988C6.98625 12.1838 7.67417 12.6469 8.465 12.9881ZM14.6887 10.6887C13.6812 11.6962 12.4517 12.2 11 12.2C9.54833 12.2 8.31875 11.6962 7.31125 10.6887C6.30375 9.68125 5.8 8.45167 5.8 7C5.8 5.54833 6.30375 4.31875 7.31125 3.31125C8.31875 2.30375 9.54833 1.8 11 1.8C12.4517 1.8 13.6812 2.30375 14.6887 3.31125C15.6962 4.31875 16.2 5.54833 16.2 7C16.2 8.45167 15.6962 9.68125 14.6887 10.6887Z" fill="#1C1B1F"/>
<path d="M9.375 8.09334C9.375 8.8845 10.2502 9.36234 10.9158 8.93451L12.6165 7.84118C13.2288 7.44754 13.2288 6.55246 12.6165 6.15882L10.9158 5.06549C10.2502 4.63766 9.375 5.1155 9.375 5.90667V8.09334Z" fill="white"/>
</g>
<defs>
<filter id="filter0_d_3037_1255" x="0.5" y="0.5" width="21" height="21" filterUnits="userSpaceOnUse" color-interpolation-filters="sRGB">
<feFlood flood-opacity="0" result="BackgroundImageFix"/>
<feColorMatrix in="SourceAlpha" type="matrix" values="0 0 0 0 0 0 0 0 0 0 0 0 0 0 0 0 0 0 127 0" result="hardAlpha"/>
<feOffset dy="4"/>
<feGaussianBlur stdDeviation="2"/>
<feComposite in2="hardAlpha" operator="out"/>
<feColorMatrix type="matrix" values="0 0 0 0 0 0 0 0 0 0 0 0 0 0 0 0 0 0 0.25 0"/>
<feBlend mode="normal" in2="BackgroundImageFix" result="effect1_dropShadow_3037_1255"/>
<feBlend mode="normal" in="SourceGraphic" in2="effect1_dropShadow_3037_1255" result="shape"/>
</filter>
</defs>
</svg>
