<svg width="40" height="40" viewBox="0 0 40 40" fill="none" xmlns="http://www.w3.org/2000/svg">
<rect x="-3.05176e-05" width="40" height="40" rx="20" fill="white"/>
<path d="M12.418 25.61L12.4161 25.6094C11.9122 25.4737 11.516 25.0861 11.3682 24.5875C11.1031 23.0754 10.9752 21.5422 10.9859 20.007L10.986 20.007L10.986 19.9955C10.979 18.4582 11.1104 16.9235 11.3783 15.4098C11.5314 14.9065 11.9278 14.513 12.4338 14.3644C12.7163 14.2921 13.2865 14.2222 14.067 14.1662C14.8303 14.1114 15.7191 14.0744 16.5776 14.0496C18.2932 14 19.8538 14 19.979 14H20H20L20.0055 14L20.021 14L20.0774 14.0002C20.126 14.0004 20.1959 14.0008 20.2845 14.0013C20.4619 14.0025 20.714 14.0046 21.0197 14.0084C21.6316 14.0161 22.4565 14.0308 23.3263 14.0586C24.1977 14.0865 25.1059 14.1272 25.887 14.1866C26.6967 14.248 27.2845 14.324 27.5664 14.4014L27.5691 14.4021C28.0731 14.5388 28.4693 14.9267 28.6176 15.4255C28.8907 16.941 29.0188 18.479 29 20.0188L28.9999 20.0271L29 20.0353C29.0066 21.5712 28.8749 23.1044 28.6064 24.6166C28.4567 25.1149 28.0602 25.5021 27.5563 25.639C27.2779 25.7124 26.705 25.7839 25.9169 25.8413C25.1539 25.8968 24.2653 25.9346 23.4068 25.9601C21.6912 26.011 20.1304 26.012 20.006 26.012H19.986L19.9805 26.012L19.9651 26.012L19.9089 26.0118C19.8605 26.0116 19.7908 26.0112 19.7024 26.0107C19.5256 26.0095 19.2741 26.0074 18.9691 26.0036C18.3586 25.9959 17.5353 25.9812 16.6666 25.9534C15.7963 25.9255 14.8885 25.8848 14.1066 25.8254C13.297 25.764 12.7055 25.688 12.418 25.61ZM18.5052 16.1385L17.0074 15.2756L17.006 17.0042L17.001 23.0042L16.9995 24.7352L18.4998 23.8717L23.7118 20.8717L25.2168 20.0054L23.7122 19.1385L18.5052 16.1385Z" fill="white" stroke="black" stroke-width="2"/>
</svg>
